<mxfile host="app.diagrams.net" modified="2024-04-15T23:22:42.163Z" agent="Mozilla/5.0 (Windows NT 10.0; Win64; x64) AppleWebKit/537.36 (KHTML, like Gecko) Chrome/123.0.0.0 Safari/537.36 Edg/123.0.0.0" etag="7zjP3e1TJdg_IlrqtzXP" version="24.2.5" type="device">
  <diagram name="Page-1" id="bR6pzGXzQ4tVox6fEBz0">
    <mxGraphModel dx="786" dy="459" grid="1" gridSize="10" guides="1" tooltips="1" connect="1" arrows="1" fold="1" page="1" pageScale="1" pageWidth="850" pageHeight="1100" math="0" shadow="0">
      <root>
        <mxCell id="0" />
        <mxCell id="1" parent="0" />
        <mxCell id="6Gvw15Bcua0NvGJzo-vV-63" style="edgeStyle=orthogonalEdgeStyle;rounded=0;orthogonalLoop=1;jettySize=auto;html=1;entryX=0.5;entryY=0;entryDx=0;entryDy=0;fontFamily=Times New Roman;fontSize=11;" parent="1" edge="1">
          <mxGeometry relative="1" as="geometry">
            <mxPoint x="631.1699999999998" y="500" as="targetPoint" />
          </mxGeometry>
        </mxCell>
        <mxCell id="RW9tVlY7NCJbLOYiDFET-52" style="edgeStyle=orthogonalEdgeStyle;rounded=0;orthogonalLoop=1;jettySize=auto;html=1;exitX=1;exitY=0.5;exitDx=0;exitDy=0;fontFamily=Times New Roman;fontSize=11;" parent="1" edge="1">
          <mxGeometry relative="1" as="geometry">
            <mxPoint x="620" y="680" as="sourcePoint" />
          </mxGeometry>
        </mxCell>
        <mxCell id="Fq7tyV2jSN5wI_xyPeHY-14" style="edgeStyle=orthogonalEdgeStyle;rounded=0;orthogonalLoop=1;jettySize=auto;html=1;exitX=1;exitY=0.5;exitDx=0;exitDy=0;entryX=0;entryY=0.5;entryDx=0;entryDy=0;" parent="1" source="ccNJIbu-kGH7p9ZOHVRw-41" target="ccNJIbu-kGH7p9ZOHVRw-46" edge="1">
          <mxGeometry relative="1" as="geometry" />
        </mxCell>
        <mxCell id="ccNJIbu-kGH7p9ZOHVRw-41" value="&lt;font style=&quot;font-size: 11px;&quot;&gt;Inicio&lt;/font&gt;" style="ellipse;whiteSpace=wrap;html=1;fontFamily=Times New Roman;fontSize=11;" parent="1" vertex="1">
          <mxGeometry x="233.25" y="390" width="85" height="40" as="geometry" />
        </mxCell>
        <mxCell id="ccNJIbu-kGH7p9ZOHVRw-42" value="&lt;font style=&quot;font-size: 11px;&quot;&gt;Fin&lt;/font&gt;" style="ellipse;whiteSpace=wrap;html=1;fontFamily=Times New Roman;fontSize=11;" parent="1" vertex="1">
          <mxGeometry x="606.5" y="650" width="85" height="40" as="geometry" />
        </mxCell>
        <mxCell id="Fq7tyV2jSN5wI_xyPeHY-15" style="edgeStyle=orthogonalEdgeStyle;rounded=0;orthogonalLoop=1;jettySize=auto;html=1;exitX=1;exitY=0.5;exitDx=0;exitDy=0;entryX=0;entryY=0.5;entryDx=0;entryDy=0;" parent="1" source="ccNJIbu-kGH7p9ZOHVRw-46" edge="1">
          <mxGeometry relative="1" as="geometry">
            <mxPoint x="526.25" y="410.0000000000001" as="targetPoint" />
          </mxGeometry>
        </mxCell>
        <mxCell id="ccNJIbu-kGH7p9ZOHVRw-46" value="&lt;font style=&quot;font-size: 11px;&quot;&gt;Genera una nueva &lt;br&gt;solución &quot;x&quot; aleatoriamente&amp;nbsp;&lt;/font&gt;" style="rounded=0;whiteSpace=wrap;html=1;fontFamily=Times New Roman;fontSize=11;" parent="1" vertex="1">
          <mxGeometry x="356.25" y="390" width="130" height="40" as="geometry" />
        </mxCell>
        <mxCell id="Fq7tyV2jSN5wI_xyPeHY-17" style="edgeStyle=orthogonalEdgeStyle;rounded=0;orthogonalLoop=1;jettySize=auto;html=1;exitX=0;exitY=0.5;exitDx=0;exitDy=0;entryX=1;entryY=0.5;entryDx=0;entryDy=0;" parent="1" source="ccNJIbu-kGH7p9ZOHVRw-51" target="Fq7tyV2jSN5wI_xyPeHY-7" edge="1">
          <mxGeometry relative="1" as="geometry" />
        </mxCell>
        <mxCell id="Fq7tyV2jSN5wI_xyPeHY-21" style="edgeStyle=orthogonalEdgeStyle;rounded=0;orthogonalLoop=1;jettySize=auto;html=1;exitX=0.5;exitY=1;exitDx=0;exitDy=0;entryX=1;entryY=0.5;entryDx=0;entryDy=0;" parent="1" source="ccNJIbu-kGH7p9ZOHVRw-51" target="Fq7tyV2jSN5wI_xyPeHY-12" edge="1">
          <mxGeometry relative="1" as="geometry" />
        </mxCell>
        <mxCell id="ccNJIbu-kGH7p9ZOHVRw-51" value="¿&quot;y&quot; es mejor que &quot;x&quot;?" style="rhombus;whiteSpace=wrap;html=1;fontFamily=Times New Roman;fontSize=11;" parent="1" vertex="1">
          <mxGeometry x="563" y="460" width="80" height="80" as="geometry" />
        </mxCell>
        <mxCell id="ccNJIbu-kGH7p9ZOHVRw-52" style="edgeStyle=orthogonalEdgeStyle;rounded=0;orthogonalLoop=1;jettySize=auto;html=1;exitX=1;exitY=0.5;exitDx=0;exitDy=0;fontFamily=Times New Roman;fontSize=11;" parent="1" edge="1">
          <mxGeometry relative="1" as="geometry">
            <mxPoint x="620" y="680" as="sourcePoint" />
          </mxGeometry>
        </mxCell>
        <mxCell id="ccNJIbu-kGH7p9ZOHVRw-61" value="si" style="text;html=1;align=center;verticalAlign=middle;whiteSpace=wrap;rounded=0;fontFamily=Times New Roman;fontSize=11;" parent="1" vertex="1">
          <mxGeometry x="563" y="529.5" width="60" height="30" as="geometry" />
        </mxCell>
        <mxCell id="Fq7tyV2jSN5wI_xyPeHY-16" style="edgeStyle=orthogonalEdgeStyle;rounded=0;orthogonalLoop=1;jettySize=auto;html=1;exitX=0.5;exitY=1;exitDx=0;exitDy=0;" parent="1" target="ccNJIbu-kGH7p9ZOHVRw-51" edge="1">
          <mxGeometry relative="1" as="geometry">
            <mxPoint x="602.9999999999998" y="430.0000000000001" as="sourcePoint" />
          </mxGeometry>
        </mxCell>
        <mxCell id="Fq7tyV2jSN5wI_xyPeHY-5" value="Genera una solución candidata &quot;y&quot; aleatoriamente, basada en la actual solución x" style="rounded=0;whiteSpace=wrap;html=1;fontFamily=Times New Roman;fontSize=11;" parent="1" vertex="1">
          <mxGeometry x="526.25" y="390" width="153.5" height="40" as="geometry" />
        </mxCell>
        <mxCell id="Fq7tyV2jSN5wI_xyPeHY-18" style="edgeStyle=orthogonalEdgeStyle;rounded=0;orthogonalLoop=1;jettySize=auto;html=1;exitX=0;exitY=0.5;exitDx=0;exitDy=0;" parent="1" source="Fq7tyV2jSN5wI_xyPeHY-7" edge="1">
          <mxGeometry relative="1" as="geometry">
            <mxPoint x="316.25" y="500" as="targetPoint" />
          </mxGeometry>
        </mxCell>
        <mxCell id="Fq7tyV2jSN5wI_xyPeHY-7" value="" style="rounded=0;whiteSpace=wrap;html=1;fontFamily=Times New Roman;fontSize=11;" parent="1" vertex="1">
          <mxGeometry x="364.5" y="470.5" width="161.75" height="59" as="geometry" />
        </mxCell>
        <mxCell id="Fq7tyV2jSN5wI_xyPeHY-8" value="" style="shape=image;verticalLabelPosition=bottom;labelBackgroundColor=default;verticalAlign=top;aspect=fixed;imageAspect=0;image=data:image/png,iVBORw0KGgoAAAANSUhEUgAAAOUAAABLCAYAAACP30CIAAAAAXNSR0IArs4c6QAAAARnQU1BAACxjwv8YQUAAAAJcEhZcwAADsMAAA7DAcdvqGQAAAo3SURBVHhe7Z3JixRNE4drvrsHl7OIehERxR03UHBFxNsoevAgyohnFfXmAiPiyWUEvQg6bgcvIy6g4Ki4oygoiCIinlxA/4D5+om34vvqbasqa5uerDIeKLK7uruqoyt/mZEZkdVdQy0CwzC84T9haRiGJ5goDcMzTJSG4RkmSsPwDBOlYXiGidIwPMNEaRieYaI0DM8wURqGZ5goDcMzTJSG4RkmSsPwDBOlYXiGidIwPMNEWUN27NgRfP/+PXxmjDSvXr2Sa1IVJsqawcUfPXp0MHbs2HBPce7fvx+sWrUquHjxYrgnG6dPnw42bNggn68bRWx22Tt9+nQpKxMmi5yNetDX1ze0cuXK8Fk83759G+rp6RlqCZfF61LGwXtmz5499PLly3BPPgYHB+Xze/fuDfeMHNjQ3d0t9rLxOI4yNrvs5Xfn9f7+/nBPcUyUNYGKRIX78OFDuOdPtGJQKXk8MDAgz9vp7e0dmjRpkrynDHwe0dNYjBT8LnwHbAJEEyecKmx22avfJe0aZcFEWRPoIbXiJcHrLuHyGu9BsFVAz+A653DC74LY0qjSZpe99MYub8aFibIGUBFogdNaeSoJlTOuZ4xCpXFV4rzw3UbCjcWlRCCuc1dtc5q92gDw3YpioqwBVCgqVhLaQ7ZvcVChko5FReNzCDvaAPD+tGPiLlctdBf0RvqddEvqodJsxuXUY0XdUv1N48aILns5V5ne0kTpObhcVA6Xe6hjzrSJBn1PnBvM59j0fNHjIFAqYdIEilbgMuO1IiAi12+TZjMgIL43JeIFbE/rfV32ag9etLe0kIjnnDt3Lmj1XMHEiRPDPfE8evRIyrlz50oZx+/fv6VcsGCBlFGY8mdbs2aNPL93756UQPilVfGDnTt3hnviefv2bfioM9y9ezdoNRapv02azXDy5Emxb+3atcHPnz8lVHLt2rXg0KFD4TuSSbJ30aJF8r0uXLgQ7smHidJjSBC4dOlSsHXr1nBPMgSwWy29U7xZaLlewcePH8Nn/xybfVS2ohAb7OrqyrTx3iw8e/ZMGqwqmDdvnpT79+8PTpw4IY/L0PIqglOnThVK8jBReszt27elnD9/vpRp3Lp1K7WXzMOsWbOCmzdvhs/+CZ5TWctw48YNhkqZNt7rgkaD3nvmzJnhnnLQW9KorVixopLEjNWrV0up1zAPJkqPwY2iomjGSBJaQZctWxbuiWfUqFFSPnz4UMokxo8fLyWtPMf+8eNHpl5yypQp4aPh58mTJ1ImuaVKVps1w+fp06dSZiHNXv29osOArJgoPQbXlZbbxbt376R0VVDEjcg/ffoU7oln6tSpUjJmOnr0aHD48GF5nsSLFy9kDFVFD5OV169fS+lqLLLYjHtOA8j4EpfY5XJmtReXP28KI5goPUXzLLO4Zw8ePJAyS0/FZA6ubhpa0Y8fPy6V2jVO5XiMoToJ58w6nkyzGQHu3r1bxpH6+129elWEeuTIEXneTlZ78VyYPOJYuWj58IaH6LR7lml14oqELLJA+IDjpoVOgGNmibVxHI6XFpaoGkIRnDMp9thOks36uxE2UQj76LHjQh557NXwUt40RBOlp2jlyBL700qUFWJwVMa0Y1NhXRWPz7dcw8QY4HChcUBXwxIli80u8tqrMdK0mGccJkpPQRRcUBfaGufN60TEnCPaSyi85joen+PzeStcFXBObM4rsDSbXRS1l++ZN7unEaLE8CLG+0wWe6iUVBS2ItDjcA4EqL0IFdfVA+GO0ZMXzVgpA+KgtyraGERtzkoZe/mubHlohCipTFTiTrtRw4XakyZK7SGpLHl7jHZ0zIUw8/a4nQQhlhHkSMA15LfNQyNEqZWqiFviIzpmyjNONPxERZmnbjYiJEIgudWCOoPsdWPChAnhI6OuaDhJc3CzUIkoicNMnjxZ8havX78u+4jxjBkzRrZoAJXHup9sEeJE3NuEz3KMKLzOa7xXX9fjRyFrgiA779ccyzlz5hTKO/SBX79+hY+MulOkYS0tSoRAwvTjx48lmMuqhn379kl2yfv37yXzQW8ohCDJxGA/QdWzZ88GmzZtCg4cOBC0xgn/yl5B6BwPeH9r3CTPN2/e/IfYCObqec6fPx+0XAXJzDh27Fj4jnrx5s2b8JHxVxK6sZXALCAD8egslQbBo+hERlrciNfYouhYK3p8HU/iu0ePpfvS0ONl3aLnHU70N2vKxNXfjF7LPHWnsjElvRe9EylNrnxEelU4ePBgbP4gLmpLbPK6C01MZhVD3txLvmfrN8i8uezCZcd1zrqVJe6Yto3MViWViVIXfG7fvl1K5c6dOzIJE0VzNRFwHPp6+1IkzfTXzH/AHcZ1jQpG3VuWIHWSXbt2xYo5aStL3DFtG5mtSioTpQomOgOKOFiX1y6+58+fSwZ9ErwO7YnQV65cEQFGz8F4sn0lha5hW7hwoZRJkPQd1+olbXW8+bBRPyoTJT1iu9CYyIH23hOh5u3FEATu8bZt28I9/3eZ22e4cGWZFNJbWyRRtftaFa4lWEazqUyUjO0QG7OxwGp1lsT09/f/q2fT3mbatGlSxrFlyxYpNZTCZ9atWydCw0VUdGzK+jbg3PTKLMo9c+aM7DOMkcS1djWOSkRJ+IIQR09Pj7iSuHqIYmBg4A/XVd3ctFtX8BlCJBq/RKR79uz54zYRhA76+vr+F8fEtQV6zyYkEmhjY9QX7aSi8yAuulpuWelRKj3axo0bxcUzyoNbPm7cOBkOZLlfjeEvJLPgQebRRiU9JRk1Gug3yqOhHZ1FNuqLpoDmoRJRMgPayfuz/A3QyOGGNxmGJ1lvJ1lXGNblvctgaVHSmhPop0WI5rga5SB3F3RM0jSYvOO+qK478NUZndTMG2koLUp6SPxlZjyTkgGM/OhE1devX6VsEjQ4ixcvlsfM0GscuGkN0JcvX6RMizTEUYn7alSP3ubRdb/SOsK9VXt7e+UxCw1o1NmquLu7T+htMDvuvhrDA4kKTBCQlNFERuJesZ2GzDRszNvYmCg9hpivJtw3jbj0yKZBKKSIjSZKj1m/fn2xm/l6jiabLFmyJNzTPHQxPv/mlRcTpccsX75cysuXL0vZFHRFUSf/e6TTsNKJ4Ycr/zoOE6XHMN7q7u6W/xRpEp8/f5ayCamQSXDNikYjTJSewx+1EgdumgsL2KSLCJpkH/FJrln76qismCg9h1lYZvBYddMUyOnFphkzZognwNi5Sb0m/+CMjUVtqiQh3RheyJQiJY0biFk6o9/Q89PgDA4OFl5/a6KsCeSIkpIWXU9q+AeNJ8Iss7rHRFkTGHPh7jFWaVrmS1PgGi1dulQWEpS5RjamrAmMT1jQTUts+AcLM7j/Mf8GXbbRtJ6yZqgoufiGP1R5XaynrBl60W0BtD9oOKeqhtJ6SsPwDOspDcMzTJSG4RkmSsPwDBOlYXiGidIwPMNEaRieYaI0DM8wURqGZ5goDcMzTJSG4RVB8F8R97jbDtkrogAAAABJRU5ErkJggg==;" parent="1" vertex="1">
          <mxGeometry x="387.94" y="472" width="106.87" height="35" as="geometry" />
        </mxCell>
        <mxCell id="Fq7tyV2jSN5wI_xyPeHY-10" value="" style="shape=image;verticalLabelPosition=bottom;labelBackgroundColor=default;verticalAlign=top;aspect=fixed;imageAspect=0;image=data:image/png,iVBORw0KGgoAAAANSUhEUgAAAQsAAAAcCAYAAAB28ZrFAAAAAXNSR0IArs4c6QAAAARnQU1BAACxjwv8YQUAAAAJcEhZcwAADsMAAA7DAcdvqGQAAAfuSURBVHhe7ZzJj01NFMCrv72pWYqIYSkkCAkWLBASkSBt2lkIWwkxxcL4SEhETInEQgxBiGjTggWRGEPCihYRS/M/0N/9na7T6t3vDvXeu62/bueX3FTdqro1nDr3VNW5r7utO8EZhmGU8I8PDcMwCjFjYRhGFGYsDMOIwoyFYRhRmLEwDCMKMxYDjLa2trrr0aNHPufPcvDgwbp+cN8Kt27dcitXrnQLFy70Kf9vvn796trb21se90AiylggmFOnTrnp06f3KseECRPc9u3b3YcPHyQ0/hy1Ws3xxZtr9uzZPrVnnnjhmB8UmTlrBQzRxo0bM1+IzZs39/ZhwYIFPrV5hg4d6p4/f+7vqufixYs+ZkAz8ig1Fq9fv3YzZsxwhw4dcps2bXJfvnwRBXny5ImbNGmSmzZtmnvx4oUvbfQXGArmCSPBHD148MBt3bq16ZUPQ/Hr1y934sQJn9K3YPRYgPoCFrSzZ8/6u2oYOXKk+/btmxjNgUaz8ig0Fijg3LlzJY5xYNVCSEDIPUpp9D87d+50XV1dbvfu3TI3kydPdvv373dbtmwR5WgUXt5Fixb5u4ELOtzR0eHvjFbkUWgsUMDv37+7o0eP9hqJNCjl1KlT/d1vWNFY5dgSc3xhhwJ0lu0xqwirF2dV4pTLOs6E+YTh9ok4Z1zaIk57GDDgufDYRDptQ7oPtEuZvG17UTt5VDX+WOgXx4FwnmbOnCnhlStXJOxPiuajjDxZAnVwVNL8tI4wbxxv7t69K/mhTwT5a594nnrCPuXNO2XCPKWsL7Sn+VpWyzEm0lQXKRM+q7SqV0XyoC7utf20PuYaCxpnCzpixIjSFWbv3r0+1gNC+Pjxo3v37p2sdsAOhTp//vwpF+nnz593b968kS0R1m7fvn11ioCwdu3a5e7duydb6/nz57tVq1aJMKiLcy6DfvnypdS5YcMG9+PHD1lJFy9e7FasWCFHpocPH7pLly65w4cPS73pPsyaNUteNNLSFLWTR1XjjwV5YNTTRhtDDvfv35ewvyibjyKKZAksaOgHLwA6wrEYHdH8Z8+eydxy0fadO3cknZdpyZIl7siRI5J+48aNXgPAs0XzTlzzQsr6AvSHucKAswukHCxbtkzksW7dul5dZ+whVehVnjzIpw87duyQdHalPBcaQzIySSaUvxnpTir1KfXUajXJDy/SXr161T1+/HhfqofOzk7JP3nypNxr3aQrmkaoJIaqOxm8v+vuToQoZRIB+JRkVMl9Mon+rgf6QDqhkkxc3Vi0vQsXLviUYrLayaLK8WdBGeQcos+m04H0vDmMIa/eEOovKhMzH8B9mBYjS3Qh1AfND+WYrheod9u2bf6uB+oM6wbu8+advHDcsX0hLYQ68tL02Sr1Kkse9Dv9LjBHvINKqYMztIohOHawgMkA5D7pjKRhbbFubGX0YlWB9KqJdU7z+PFjCXW1pH6tZ9SoUZKX9pqPHTvWx3pgRU3GJqGuFulnlNGjR/tYOel2sqhq/IOJRuYjJEaW1MfF7oVt89q1ayW9CHSLenHQhyxfvlzCa9euSajEzDs005dY+lqv2OmxCwrrZ454B9XnlWsshgwZIiEP5BkMzseciyD8hJdYLVGO9HX8+HFfIp6set6/f+9z80Eh6Nv169dla0Wf/hRVjn+w0Ox8lMkS3eTFZMs/ZswYd+7cOUmPgW17SJ5fLpZW+hJDX+sVC35W/ePGjZP8XGPBKqC7hjNnzkgYC1Ywy8BwTmyUrGfK6kEx58yZ4/bs2SOWPjRkf4Iqxx8D48O3lPZNIAeYN2+ehP1FK/NRJss1a9aIn4Bz/Pr16zNX1Tw+ffrkY/UMHz7cxxqjlb7E0Nd6dfv2bR/7TVh34THk6tWrEh44cOA/W508dMXA2RPS6ID0BcDBGQqILRHOmyJ0y1X2xaIvqGr8jcJYnz59WicrlYNur/uLZucjRpa8QDhOG9kVqG7hwA/lpfGlS5dK2CjN9CWWvtarjo4OkUf6Pb9586aPlRgLdhednZ0Sx+uKZ1TPL0BH00cCntGG2XbyDF5cPr/qV5W3b99KGJ6j+AEQhFtDPLIcgyZOnCjbOy68xHiMQQd2+vTpukkfNmyYhKxiGtJPyvB5iTFoH44dOyZhEXntZFHl+BsBzzqoMrGaY+RrtVrvNpL5am9vr/tcVoTOdatfU2Lmgzhpmg4xsuSlv3z5sjxDPXwJAGSsn8LZKagh1ZeLrTvnceRFOhdxjhBq1IrmXfP4UqKU9UXbgbA+rSN8UVUPPn/+LGGVepUlD37AhzymTJki9VI/7axevVryheRMUgpfIfC4JtZNPKt64S3FUxx6WoHyeJoT4Uk5ypAG6uXVizqz0hTaxQus6epRVy9veCm0pX0l7Orq6u0PHt+i9tIUtZNHleNPQz7ls0A2Om5kFnr1Qb3n5KXnLE26T1x5z+gY8iibD8hrq0iWwPPkcTFe6iZOO1oOuZDGuFV/AHmobpFPO/pM0byn82gLyvoSPsOV1QZyVFmFaVAki/R8UUdWGuTJg/7wTlOWvPCrCti/1Rtg4KVOlKClnxmzaiSKI6tVFbBTwS8yEH/6bMRT+unUGFyw9eSHPVUZCuPvwYzFXwRnYv3loGE0ihmLAQh/HKY/nNHPozGwm+CTXhXeeo4y2ge+AhiDH/NZGIYRhe0sDMOIwoyFYRhRmLEwDCMKMxaGYUTg3L/ITUt4nwoThAAAAABJRU5ErkJggg==;" parent="1" vertex="1">
          <mxGeometry x="367.47" y="507" width="147.8" height="15.5" as="geometry" />
        </mxCell>
        <mxCell id="Fq7tyV2jSN5wI_xyPeHY-19" style="edgeStyle=orthogonalEdgeStyle;rounded=0;orthogonalLoop=1;jettySize=auto;html=1;exitX=0.5;exitY=1;exitDx=0;exitDy=0;entryX=0.5;entryY=0;entryDx=0;entryDy=0;" parent="1" source="Fq7tyV2jSN5wI_xyPeHY-11" target="Fq7tyV2jSN5wI_xyPeHY-12" edge="1">
          <mxGeometry relative="1" as="geometry" />
        </mxCell>
        <mxCell id="Fq7tyV2jSN5wI_xyPeHY-25" style="edgeStyle=orthogonalEdgeStyle;rounded=0;orthogonalLoop=1;jettySize=auto;html=1;entryX=0;entryY=0.5;entryDx=0;entryDy=0;" parent="1" source="Fq7tyV2jSN5wI_xyPeHY-11" target="Fq7tyV2jSN5wI_xyPeHY-22" edge="1">
          <mxGeometry relative="1" as="geometry">
            <Array as="points">
              <mxPoint x="178" y="500" />
              <mxPoint x="178" y="670" />
            </Array>
          </mxGeometry>
        </mxCell>
        <mxCell id="Fq7tyV2jSN5wI_xyPeHY-11" value="¿r &amp;lt; p?" style="rhombus;whiteSpace=wrap;html=1;fontFamily=Times New Roman;fontSize=11;" parent="1" vertex="1">
          <mxGeometry x="235.75" y="460" width="80" height="80" as="geometry" />
        </mxCell>
        <mxCell id="Fq7tyV2jSN5wI_xyPeHY-46" style="edgeStyle=orthogonalEdgeStyle;rounded=0;orthogonalLoop=1;jettySize=auto;html=1;entryX=0.5;entryY=0;entryDx=0;entryDy=0;" parent="1" source="Fq7tyV2jSN5wI_xyPeHY-12" target="Fq7tyV2jSN5wI_xyPeHY-22" edge="1">
          <mxGeometry relative="1" as="geometry">
            <Array as="points">
              <mxPoint x="276" y="610" />
              <mxPoint x="239" y="610" />
            </Array>
          </mxGeometry>
        </mxCell>
        <mxCell id="Fq7tyV2jSN5wI_xyPeHY-12" value="x = y" style="rounded=0;whiteSpace=wrap;html=1;fontFamily=Times New Roman;fontSize=11;" parent="1" vertex="1">
          <mxGeometry x="250.5" y="570" width="50.5" height="30" as="geometry" />
        </mxCell>
        <mxCell id="Fq7tyV2jSN5wI_xyPeHY-31" style="edgeStyle=orthogonalEdgeStyle;rounded=0;orthogonalLoop=1;jettySize=auto;html=1;exitX=1;exitY=0.5;exitDx=0;exitDy=0;" parent="1" source="Fq7tyV2jSN5wI_xyPeHY-22" target="Fq7tyV2jSN5wI_xyPeHY-26" edge="1">
          <mxGeometry relative="1" as="geometry" />
        </mxCell>
        <mxCell id="Fq7tyV2jSN5wI_xyPeHY-48" style="edgeStyle=orthogonalEdgeStyle;rounded=0;orthogonalLoop=1;jettySize=auto;html=1;entryX=0.5;entryY=0;entryDx=0;entryDy=0;" parent="1" source="Fq7tyV2jSN5wI_xyPeHY-22" target="Fq7tyV2jSN5wI_xyPeHY-5" edge="1">
          <mxGeometry relative="1" as="geometry">
            <Array as="points">
              <mxPoint x="239" y="730" />
              <mxPoint x="158" y="730" />
              <mxPoint x="158" y="370" />
              <mxPoint x="603" y="370" />
            </Array>
          </mxGeometry>
        </mxCell>
        <mxCell id="Fq7tyV2jSN5wI_xyPeHY-22" value="¿Se cumple el criterio de parada?" style="rhombus;whiteSpace=wrap;html=1;fontFamily=Times New Roman;fontSize=11;" parent="1" vertex="1">
          <mxGeometry x="199.25" y="630" width="80" height="80" as="geometry" />
        </mxCell>
        <mxCell id="Fq7tyV2jSN5wI_xyPeHY-33" style="edgeStyle=orthogonalEdgeStyle;rounded=0;orthogonalLoop=1;jettySize=auto;html=1;" parent="1" source="Fq7tyV2jSN5wI_xyPeHY-26" target="Fq7tyV2jSN5wI_xyPeHY-29" edge="1">
          <mxGeometry relative="1" as="geometry" />
        </mxCell>
        <mxCell id="Fq7tyV2jSN5wI_xyPeHY-26" value="Decrece la temperatura &quot;t&quot;&amp;nbsp;" style="rounded=0;whiteSpace=wrap;html=1;fontFamily=Times New Roman;fontSize=11;" parent="1" vertex="1">
          <mxGeometry x="319.75" y="650" width="130" height="40" as="geometry" />
        </mxCell>
        <mxCell id="Fq7tyV2jSN5wI_xyPeHY-34" style="edgeStyle=orthogonalEdgeStyle;rounded=0;orthogonalLoop=1;jettySize=auto;html=1;exitX=1;exitY=0.5;exitDx=0;exitDy=0;entryX=0;entryY=0.5;entryDx=0;entryDy=0;" parent="1" source="Fq7tyV2jSN5wI_xyPeHY-29" target="ccNJIbu-kGH7p9ZOHVRw-42" edge="1">
          <mxGeometry relative="1" as="geometry" />
        </mxCell>
        <mxCell id="Fq7tyV2jSN5wI_xyPeHY-47" style="edgeStyle=orthogonalEdgeStyle;rounded=0;orthogonalLoop=1;jettySize=auto;html=1;entryX=0.5;entryY=0;entryDx=0;entryDy=0;" parent="1" source="Fq7tyV2jSN5wI_xyPeHY-29" target="Fq7tyV2jSN5wI_xyPeHY-5" edge="1">
          <mxGeometry relative="1" as="geometry">
            <Array as="points">
              <mxPoint x="530" y="730" />
              <mxPoint x="158" y="730" />
              <mxPoint x="158" y="370" />
              <mxPoint x="603" y="370" />
            </Array>
          </mxGeometry>
        </mxCell>
        <mxCell id="Fq7tyV2jSN5wI_xyPeHY-29" value="¿La temperatura &quot;t&quot; es mayor que la &quot;temperatura final&quot;?" style="rhombus;whiteSpace=wrap;html=1;fontFamily=Times New Roman;fontSize=11;" parent="1" vertex="1">
          <mxGeometry x="489.75" y="630" width="80" height="80" as="geometry" />
        </mxCell>
        <mxCell id="Fq7tyV2jSN5wI_xyPeHY-35" value="no" style="text;html=1;align=center;verticalAlign=middle;whiteSpace=wrap;rounded=0;fontFamily=Times New Roman;fontSize=11;" parent="1" vertex="1">
          <mxGeometry x="219.75" y="700" width="60" height="30" as="geometry" />
        </mxCell>
        <mxCell id="Fq7tyV2jSN5wI_xyPeHY-37" value="si" style="text;html=1;align=center;verticalAlign=middle;whiteSpace=wrap;rounded=0;fontFamily=Times New Roman;fontSize=11;" parent="1" vertex="1">
          <mxGeometry x="253.75" y="645" width="60" height="30" as="geometry" />
        </mxCell>
        <mxCell id="Fq7tyV2jSN5wI_xyPeHY-38" value="no" style="text;html=1;align=center;verticalAlign=middle;whiteSpace=wrap;rounded=0;fontFamily=Times New Roman;fontSize=11;" parent="1" vertex="1">
          <mxGeometry x="509.75" y="700" width="60" height="30" as="geometry" />
        </mxCell>
        <mxCell id="Fq7tyV2jSN5wI_xyPeHY-39" value="si" style="text;html=1;align=center;verticalAlign=middle;whiteSpace=wrap;rounded=0;fontFamily=Times New Roman;fontSize=11;" parent="1" vertex="1">
          <mxGeometry x="546.5" y="645" width="60" height="30" as="geometry" />
        </mxCell>
        <mxCell id="Fq7tyV2jSN5wI_xyPeHY-40" value="no" style="text;html=1;align=center;verticalAlign=middle;whiteSpace=wrap;rounded=0;fontFamily=Times New Roman;fontSize=11;" parent="1" vertex="1">
          <mxGeometry x="526.25" y="477" width="60" height="30" as="geometry" />
        </mxCell>
        <mxCell id="Fq7tyV2jSN5wI_xyPeHY-41" value="no" style="text;html=1;align=center;verticalAlign=middle;whiteSpace=wrap;rounded=0;fontFamily=Times New Roman;fontSize=11;" parent="1" vertex="1">
          <mxGeometry x="199.25" y="477" width="60" height="30" as="geometry" />
        </mxCell>
        <mxCell id="Fq7tyV2jSN5wI_xyPeHY-42" value="si" style="text;html=1;align=center;verticalAlign=middle;whiteSpace=wrap;rounded=0;fontFamily=Times New Roman;fontSize=11;" parent="1" vertex="1">
          <mxGeometry x="236" y="529.5" width="60" height="30" as="geometry" />
        </mxCell>
      </root>
    </mxGraphModel>
  </diagram>
</mxfile>
